<svg xmlns="http://www.w3.org/2000/svg" xmlns:xlink="http://www.w3.org/1999/xlink" contentStyleType="text/css" data-diagram-type="SEQUENCE" height="783px" preserveAspectRatio="none" style="width:1186px;height:783px;background:#FFFFFF;" version="1.1" viewBox="0 0 1186 783" width="1186px" zoomAndPan="magnify"><defs/><g><rect fill="#ADD8E6" height="771.3359" style="stroke:#181818;stroke-width:0.5;" width="1162.957" x="11" y="6"/><text fill="#000000" font-family="sans-serif" font-size="13" font-weight="bold" lengthAdjust="spacing" textLength="131.7012" x="526.6279" y="18.0669">PC1 (192.168.1.5)</text><rect fill="#DDDDDD" height="751.2031" style="stroke:#181818;stroke-width:0.5;" width="873.9907" x="11" y="26.1328"/><text fill="#000000" font-family="sans-serif" font-size="13" font-weight="bold" lengthAdjust="spacing" textLength="114.5879" x="390.7014" y="38.1997">request-sample</text><g><title>sample.cpp</title><rect fill="#000000" fill-opacity="0.00000" height="663.4766" width="8" x="58.9106" y="76.5625"/><line style="stroke:#181818;stroke-width:0.5;stroke-dasharray:5,5;" x1="62.4106" x2="62.4106" y1="76.5625" y2="740.0391"/></g><g><title>vsomeip..application</title><rect fill="#000000" fill-opacity="0.00000" height="655.4766" width="8" x="797.5752" y="84.5625"/><line style="stroke:#181818;stroke-width:0.5;stroke-dasharray:5,5;" x1="801.0752" x2="801.0752" y1="84.5625" y2="740.0391"/></g><g><title>routingmanager</title><rect fill="#000000" fill-opacity="0.00000" height="663.4766" width="8" x="1102.8281" y="76.5625"/><line style="stroke:#181818;stroke-width:0.5;stroke-dasharray:5,5;" x1="1106.3281" x2="1106.3281" y1="76.5625" y2="740.0391"/></g><rect fill="#E2E2F0" height="30.2969" rx="2.5" ry="2.5" style="stroke:#181818;stroke-width:0.5;" width="94.8213" x="15" y="45.2656"/><text fill="#000000" font-family="sans-serif" font-size="14" lengthAdjust="spacing" textLength="80.8213" x="22" y="65.2607">sample.cpp</text><rect fill="#E2E2F0" height="30.2969" rx="2.5" ry="2.5" style="stroke:#181818;stroke-width:0.5;" width="127.2578" x="1042.6992" y="45.2656"/><text fill="#000000" font-family="sans-serif" font-size="14" lengthAdjust="spacing" textLength="113.2578" x="1049.6992" y="65.2607">routingmanager</text><rect fill="#E2E2F0" height="30.2969" rx="2.5" ry="2.5" style="stroke:#181818;stroke-width:0.5;" width="94.8213" x="15" y="740.0391"/><text fill="#000000" font-family="sans-serif" font-size="14" lengthAdjust="spacing" textLength="80.8213" x="22" y="760.0342">sample.cpp</text><rect fill="#E2E2F0" height="30.2969" rx="2.5" ry="2.5" style="stroke:#181818;stroke-width:0.5;" width="159.8311" x="721.1597" y="740.0391"/><text fill="#000000" font-family="sans-serif" font-size="14" lengthAdjust="spacing" textLength="145.8311" x="728.1597" y="760.0342">vsomeip::application</text><rect fill="#E2E2F0" height="30.2969" rx="2.5" ry="2.5" style="stroke:#181818;stroke-width:0.5;" width="127.2578" x="1042.6992" y="740.0391"/><text fill="#000000" font-family="sans-serif" font-size="14" lengthAdjust="spacing" textLength="113.2578" x="1049.6992" y="760.0342">routingmanager</text><rect fill="#E2E2F0" height="30.2969" rx="2.5" ry="2.5" style="stroke:#181818;stroke-width:0.5;" width="159.8311" x="721.1597" y="84.5625"/><text fill="#000000" font-family="sans-serif" font-size="14" lengthAdjust="spacing" textLength="145.8311" x="728.1597" y="104.5576">vsomeip::application</text><polygon fill="#181818" points="709.1597,101.6953,719.1597,105.6953,709.1597,109.6953,713.1597,105.6953" style="stroke:#181818;stroke-width:1;"/><line style="stroke:#181818;stroke-width:1;" x1="62.4106" x2="715.1597" y1="105.6953" y2="105.6953"/><text fill="#000000" font-family="sans-serif" font-size="13" font-weight="bold" lengthAdjust="spacing" textLength="9.0454" x="69.4106" y="100.6294">1</text><text fill="#000000" font-family="sans-serif" font-size="13" lengthAdjust="spacing" textLength="488.7441" x="82.4561" y="100.6294">vomeip::runtime::get()-&gt;create_application(VSOMEIP_APPLICATION_NAME)</text><polygon fill="#181818" points="789.0752,132.9922,799.0752,136.9922,789.0752,140.9922,793.0752,136.9922" style="stroke:#181818;stroke-width:1;"/><line style="stroke:#181818;stroke-width:1;" x1="62.4106" x2="795.0752" y1="136.9922" y2="136.9922"/><text fill="#000000" font-family="sans-serif" font-size="13" font-weight="bold" lengthAdjust="spacing" textLength="9.0454" x="69.4106" y="131.9263">2</text><text fill="#000000" font-family="sans-serif" font-size="13" lengthAdjust="spacing" textLength="30.7036" x="82.4561" y="131.9263">init()</text><line style="stroke:#181818;stroke-width:1;" x1="801.0752" x2="843.0752" y1="166.125" y2="166.125"/><line style="stroke:#181818;stroke-width:1;" x1="843.0752" x2="843.0752" y1="166.125" y2="179.125"/><line style="stroke:#181818;stroke-width:1;" x1="802.0752" x2="843.0752" y1="179.125" y2="179.125"/><polygon fill="#181818" points="812.0752,175.125,802.0752,179.125,812.0752,183.125,808.0752,179.125" style="stroke:#181818;stroke-width:1;"/><text fill="#000000" font-family="sans-serif" font-size="13" font-weight="bold" lengthAdjust="spacing" textLength="9.0454" x="808.0752" y="161.0591">3</text><text fill="#000000" font-family="sans-serif" font-size="13" lengthAdjust="spacing" textLength="254.2109" x="821.1206" y="161.0591">loadConfig(VSOMEIP_CONFIGURATION)</text><polygon fill="#181818" points="789.0752,204.2578,799.0752,208.2578,789.0752,212.2578,793.0752,208.2578" style="stroke:#181818;stroke-width:1;"/><line style="stroke:#181818;stroke-width:1;" x1="62.4106" x2="795.0752" y1="208.2578" y2="208.2578"/><text fill="#000000" font-family="sans-serif" font-size="13" font-weight="bold" lengthAdjust="spacing" textLength="9.0454" x="69.4106" y="203.1919">4</text><text fill="#000000" font-family="sans-serif" font-size="13" lengthAdjust="spacing" textLength="211.7705" x="82.4561" y="203.1919">register_state_handler(on_state)</text><polygon fill="#181818" points="1094.3281,233.3906,1104.3281,237.3906,1094.3281,241.3906,1098.3281,237.3906" style="stroke:#181818;stroke-width:1;"/><line style="stroke:#181818;stroke-width:1;" x1="801.0752" x2="1100.3281" y1="237.3906" y2="237.3906"/><text fill="#000000" font-family="sans-serif" font-size="13" font-weight="bold" lengthAdjust="spacing" textLength="9.0454" x="808.0752" y="232.3247">5</text><text fill="#000000" font-family="sans-serif" font-size="13" lengthAdjust="spacing" textLength="268.2075" x="821.1206" y="232.3247">VSOMEIP_REGISTER_APPLICATION (0x02)</text><polygon fill="#181818" points="789.0752,262.5234,799.0752,266.5234,789.0752,270.5234,793.0752,266.5234" style="stroke:#181818;stroke-width:1;"/><line style="stroke:#181818;stroke-width:1;" x1="62.4106" x2="795.0752" y1="266.5234" y2="266.5234"/><text fill="#000000" font-family="sans-serif" font-size="13" font-weight="bold" lengthAdjust="spacing" textLength="9.0454" x="69.4106" y="261.4575">6</text><text fill="#000000" font-family="sans-serif" font-size="13" lengthAdjust="spacing" textLength="582.0039" x="82.4561" y="261.4575">register_availability_handler(SAMPLE_SERVICE_ID, SAMPLE_INSTANCE_ID, on_availability)</text><polygon fill="#181818" points="789.0752,291.6563,799.0752,295.6563,789.0752,299.6563,793.0752,295.6563" style="stroke:#181818;stroke-width:1;"/><line style="stroke:#181818;stroke-width:1;" x1="62.4106" x2="795.0752" y1="295.6563" y2="295.6563"/><text fill="#000000" font-family="sans-serif" font-size="13" font-weight="bold" lengthAdjust="spacing" textLength="9.0454" x="69.4106" y="290.5903">7</text><text fill="#000000" font-family="sans-serif" font-size="13" lengthAdjust="spacing" textLength="701.6191" x="82.4561" y="290.5903">register_message_handler(SAMPLE_SERVICE_ID, SAMPLE_INSTANCE_ID, SAMPLE_METHOD_ID, on_message)</text><polygon fill="#181818" points="789.0752,320.7891,799.0752,324.7891,789.0752,328.7891,793.0752,324.7891" style="stroke:#181818;stroke-width:1;"/><line style="stroke:#181818;stroke-width:1;" x1="62.4106" x2="795.0752" y1="324.7891" y2="324.7891"/><text fill="#000000" font-family="sans-serif" font-size="13" font-weight="bold" lengthAdjust="spacing" textLength="9.0454" x="69.4106" y="319.7231">8</text><text fill="#000000" font-family="sans-serif" font-size="13" lengthAdjust="spacing" textLength="40.4219" x="82.4561" y="319.7231">start()</text><polygon fill="#181818" points="73.4106,349.9219,63.4106,353.9219,73.4106,357.9219,69.4106,353.9219" style="stroke:#181818;stroke-width:1;"/><line style="stroke:#181818;stroke-width:1;stroke-dasharray:2,2;" x1="67.4106" x2="800.0752" y1="353.9219" y2="353.9219"/><text fill="#000000" font-family="sans-serif" font-size="13" font-weight="bold" lengthAdjust="spacing" textLength="9.0454" x="79.4106" y="348.856">9</text><text fill="#000000" font-family="sans-serif" font-size="13" lengthAdjust="spacing" textLength="26.6792" x="92.4561" y="348.856">true</text><polygon fill="#181818" points="812.0752,379.0547,802.0752,383.0547,812.0752,387.0547,808.0752,383.0547" style="stroke:#181818;stroke-width:1;"/><line style="stroke:#181818;stroke-width:1;" x1="806.0752" x2="1105.3281" y1="383.0547" y2="383.0547"/><text fill="#000000" font-family="sans-serif" font-size="13" font-weight="bold" lengthAdjust="spacing" textLength="18.0908" x="818.0752" y="377.9888">10</text><text fill="#000000" font-family="sans-serif" font-size="13" lengthAdjust="spacing" textLength="227.5762" x="840.166" y="377.9888">VSOMEIP_REGISTERED_ACK (0x06)</text><polygon fill="#181818" points="73.4106,408.1875,63.4106,412.1875,73.4106,416.1875,69.4106,412.1875" style="stroke:#181818;stroke-width:1;"/><line style="stroke:#181818;stroke-width:1;" x1="67.4106" x2="800.0752" y1="412.1875" y2="412.1875"/><text fill="#000000" font-family="sans-serif" font-size="13" font-weight="bold" lengthAdjust="spacing" textLength="18.0908" x="79.4106" y="407.1216">11</text><text fill="#000000" font-family="sans-serif" font-size="13" lengthAdjust="spacing" textLength="256.0073" x="101.5015" y="407.1216">on_state(vsomeip::state_type_e _state)</text><path d="M46.4106,424.1875 L115.8618,424.1875 L115.8618,431.3203 L105.8618,441.3203 L46.4106,441.3203 L46.4106,424.1875" fill="#EEEEEE" style="stroke:#000000;stroke-width:1.5;"/><rect fill="none" height="85.3984" style="stroke:#000000;stroke-width:1.5;" width="1075.9175" x="46.4106" y="424.1875"/><text fill="#000000" font-family="sans-serif" font-size="13" font-weight="bold" lengthAdjust="spacing" textLength="24.4512" x="61.4106" y="437.2544">opt</text><text fill="#000000" font-family="sans-serif" font-size="11" font-weight="bold" lengthAdjust="spacing" textLength="310.0732" x="130.8618" y="436.3979">[_state = vsomeip::state_type_e::ST_REGISTERED]</text><polygon fill="#181818" points="789.0752,468.4531,799.0752,472.4531,789.0752,476.4531,793.0752,472.4531" style="stroke:#181818;stroke-width:1;"/><line style="stroke:#181818;stroke-width:1;" x1="62.4106" x2="795.0752" y1="472.4531" y2="472.4531"/><text fill="#000000" font-family="sans-serif" font-size="13" font-weight="bold" lengthAdjust="spacing" textLength="18.0908" x="69.4106" y="467.3872">12</text><text fill="#0000FF" font-family="sans-serif" font-size="13" font-weight="bold" lengthAdjust="spacing" textLength="115.4766" x="91.5015" y="467.3872">request_service</text><text fill="#000000" font-family="sans-serif" font-size="13" lengthAdjust="spacing" textLength="296.5879" x="206.978" y="467.3872">(SAMPLE_SERVICE_ID, SAMPLE_INSTANCE_ID)</text><polygon fill="#181818" points="1094.3281,497.5859,1104.3281,501.5859,1094.3281,505.5859,1098.3281,501.5859" style="stroke:#181818;stroke-width:1;"/><line style="stroke:#181818;stroke-width:1;" x1="801.0752" x2="1100.3281" y1="501.5859" y2="501.5859"/><text fill="#000000" font-family="sans-serif" font-size="13" font-weight="bold" lengthAdjust="spacing" textLength="18.0908" x="808.0752" y="496.52">13</text><text fill="#000000" font-family="sans-serif" font-size="13" lengthAdjust="spacing" textLength="119.7358" x="830.166" y="496.52">FIND_SERVICE(....)</text><polygon fill="#181818" points="812.0752,540.7188,802.0752,544.7188,812.0752,548.7188,808.0752,544.7188" style="stroke:#181818;stroke-width:1;"/><line style="stroke:#181818;stroke-width:1;" x1="806.0752" x2="1105.3281" y1="544.7188" y2="544.7188"/><text fill="#000000" font-family="sans-serif" font-size="13" font-weight="bold" lengthAdjust="spacing" textLength="18.0908" x="818.0752" y="539.6528">14</text><text fill="#000000" font-family="sans-serif" font-size="13" lengthAdjust="spacing" textLength="153.4482" x="840.166" y="539.6528">ON_OFFER_SERVICE(...)</text><polygon fill="#181818" points="73.4106,569.8516,63.4106,573.8516,73.4106,577.8516,69.4106,573.8516" style="stroke:#181818;stroke-width:1;"/><line style="stroke:#181818;stroke-width:1;" x1="67.4106" x2="800.0752" y1="573.8516" y2="573.8516"/><text fill="#000000" font-family="sans-serif" font-size="13" font-weight="bold" lengthAdjust="spacing" textLength="18.0908" x="79.4106" y="568.7856">15</text><text fill="#000000" font-family="sans-serif" font-size="13" lengthAdjust="spacing" textLength="494.5332" x="101.5015" y="568.7856">on_availability(vsomeip::service_t , vsomeip::instance_t , bool _is_available)</text><line style="stroke:#181818;stroke-width:1;" x1="62.4106" x2="104.4106" y1="602.9844" y2="602.9844"/><line style="stroke:#181818;stroke-width:1;" x1="104.4106" x2="104.4106" y1="602.9844" y2="615.9844"/><line style="stroke:#181818;stroke-width:1;" x1="63.4106" x2="104.4106" y1="615.9844" y2="615.9844"/><polygon fill="#181818" points="73.4106,611.9844,63.4106,615.9844,73.4106,619.9844,69.4106,615.9844" style="stroke:#181818;stroke-width:1;"/><text fill="#000000" font-family="sans-serif" font-size="13" font-weight="bold" lengthAdjust="spacing" textLength="18.0908" x="69.4106" y="597.9185">16</text><text fill="#000000" font-family="sans-serif" font-size="13" lengthAdjust="spacing" textLength="127.8989" x="91.5015" y="597.9185">_is_available = true</text><rect fill="#EEEEEE" height="3" style="stroke:#EEEEEE;stroke-width:1;" width="1174.957" x="5" y="646.8789"/><line style="stroke:#000000;stroke-width:1;" x1="5" x2="1179.957" y1="646.8789" y2="646.8789"/><line style="stroke:#000000;stroke-width:1;" x1="5" x2="1179.957" y1="649.8789" y2="649.8789"/><rect fill="#EEEEEE" height="27.7891" style="stroke:#000000;stroke-width:2;" width="350.8872" x="417.0349" y="633.9844"/><text fill="#000000" font-family="sans-serif" font-size="17" font-weight="bold" lengthAdjust="spacing" textLength="336.8872" x="423.0349" y="653.7642">send request and receive response</text><polygon fill="#181818" points="789.0752,688.9063,799.0752,692.9063,789.0752,696.9063,793.0752,692.9063" style="stroke:#181818;stroke-width:1;"/><line style="stroke:#181818;stroke-width:1;" x1="62.4106" x2="795.0752" y1="692.9063" y2="692.9063"/><text fill="#000000" font-family="sans-serif" font-size="13" font-weight="bold" lengthAdjust="spacing" textLength="18.0908" x="69.4106" y="687.8403">17</text><text fill="#0000FF" font-family="sans-serif" font-size="13" font-weight="bold" lengthAdjust="spacing" textLength="35.1152" x="91.5015" y="687.8403">send</text><text fill="#000000" font-family="sans-serif" font-size="13" lengthAdjust="spacing" textLength="623.6064" x="126.6167" y="687.8403">(request{SAMPLE_SERVICE_ID, SAMPLE_INSTANCE_ID, SAMPLE_METHOD_ID, reliable, payload})</text><polygon fill="#181818" points="73.4106,718.0391,63.4106,722.0391,73.4106,726.0391,69.4106,722.0391" style="stroke:#181818;stroke-width:1;"/><line style="stroke:#181818;stroke-width:1;" x1="67.4106" x2="800.0752" y1="722.0391" y2="722.0391"/><text fill="#000000" font-family="sans-serif" font-size="13" font-weight="bold" lengthAdjust="spacing" textLength="18.0908" x="79.4106" y="716.9731">18</text><text fill="#000000" font-family="sans-serif" font-size="13" lengthAdjust="spacing" textLength="453.2671" x="101.5015" y="716.9731">on_message(const std::shared_ptr&lt;vsomeip::message&gt; &amp;_response)</text><!--SRC=[dLHjRzf03FwUN-4nQGgeiC86Ob51On2wjBm9A5-Z8xZqfEGkkrnGsRJ_FWSkDANhj8qlN7psyzYFVMQfbYADrgYiDx5YsuY1HlaTj4hHijRo4KgpVXti-gT6hTvgr-grPha4RqTy-w2_XEG3S71I-2t5H5SJ5iKXbiWC43EbUS1Z9ZIKZXUr88vBm198K6o8yuNRBf4HyjXnM1o7F62QIt48e6_ofgYCppgBKZBLN53oWcrH7VmpKxHLLXvX7HchNGA2IiK1s1acbGhD8tISBMgxNEq62fb6lv20lLfCnwutytkpsSZhzvRUTE9FUcEtN4HrW0jE21QTZI6KRDENufvlJn3zwMJeNT_D3o1dyGgtFD6e_4Hd6JmmiGbHsL8S3GRPLEP03Zbthxt5qfqNqmFxyl6oyHe-sp4UiZKFkTwVQ1QzyMpa-WjtllBwhkyDBi2OlCbYsPiO6sLJ37-D8i8aeMRyAxgnZTtbr-aWvpDOPrIaYShaLgXJ9Sp46d6Coxb2xi3lzMyFshICcaT81tAHxTC47fkWzp7w27a7PApD6JhmMrV7MImBXCzphbIk0XbA1MjwErtpQFm4rOu7UFN-SDUjLFvEhVDv67gJGHvYr-XNpgR_N1CQtUbmIDDIy7ofHR751KcEYVeQBfwAvuBA5yQwbZ84doSvG5ZeMWx_x9faF7Qkq-ba3c140NOu1yXtIFz9B4M2dSwVvCok2XeQe1__FNaAGvwbU47BPfyzvPylTJAZQGUKdgQHt9183qpXne-rkZffPDowyCxFQobRdmb6fr5eMREGrjZTU0GxL0aj7AZN6fUDPgrjZ-bZWJ5Sjg7UT9ejvqCRxfPzoAxBbdqz6q4YKnKWREZTARvEiuLLjcv8O9YRpGRJ6CNDu3OtW2jsN4aHeT3MpMhyvD3wMFt2DJ4goWHMOsk0zomDDKK4SaChrY7sORLjZPZOfbIHGolPwal2LNi7H1g6lm00]--></g></svg>