<svg xmlns="http://www.w3.org/2000/svg" xmlns:xlink="http://www.w3.org/1999/xlink" contentStyleType="text/css" data-diagram-type="SEQUENCE" height="725px" preserveAspectRatio="none" style="width:1214px;height:725px;background:#FFFFFF;" version="1.1" viewBox="0 0 1214 725" width="1214px" zoomAndPan="magnify"><defs/><g><rect fill="#ADD8E6" height="713.0703" style="stroke:#181818;stroke-width:0.5;" width="1190.3281" x="11" y="6"/><text fill="#000000" font-family="sans-serif" font-size="13" font-weight="bold" lengthAdjust="spacing" textLength="140.7466" x="535.7908" y="18.0669">PC1 (192.168.1.57)</text><rect fill="#DDDDDD" height="692.9375" style="stroke:#181818;stroke-width:0.5;" width="901.3618" x="11" y="26.1328"/><text fill="#000000" font-family="sans-serif" font-size="13" font-weight="bold" lengthAdjust="spacing" textLength="125.0425" x="399.1597" y="38.1997">response-sample</text><g><title>sample.cpp</title><rect fill="#000000" fill-opacity="0.00000" height="605.2109" width="8" x="58.9106" y="76.5625"/><line style="stroke:#181818;stroke-width:0.5;stroke-dasharray:5,5;" x1="62.4106" x2="62.4106" y1="76.5625" y2="681.7734"/></g><g><title>vsomeip..application</title><rect fill="#000000" fill-opacity="0.00000" height="597.2109" width="8" x="824.9463" y="84.5625"/><line style="stroke:#181818;stroke-width:0.5;stroke-dasharray:5,5;" x1="828.4463" x2="828.4463" y1="84.5625" y2="681.7734"/></g><g><title>routingmanager</title><rect fill="#000000" fill-opacity="0.00000" height="605.2109" width="8" x="1130.1992" y="76.5625"/><line style="stroke:#181818;stroke-width:0.5;stroke-dasharray:5,5;" x1="1133.6992" x2="1133.6992" y1="76.5625" y2="681.7734"/></g><rect fill="#E2E2F0" height="30.2969" rx="2.5" ry="2.5" style="stroke:#181818;stroke-width:0.5;" width="94.8213" x="15" y="45.2656"/><text fill="#000000" font-family="sans-serif" font-size="14" lengthAdjust="spacing" textLength="80.8213" x="22" y="65.2607">sample.cpp</text><rect fill="#E2E2F0" height="30.2969" rx="2.5" ry="2.5" style="stroke:#181818;stroke-width:0.5;" width="127.2578" x="1070.0703" y="45.2656"/><text fill="#000000" font-family="sans-serif" font-size="14" lengthAdjust="spacing" textLength="113.2578" x="1077.0703" y="65.2607">routingmanager</text><rect fill="#E2E2F0" height="30.2969" rx="2.5" ry="2.5" style="stroke:#181818;stroke-width:0.5;" width="94.8213" x="15" y="681.7734"/><text fill="#000000" font-family="sans-serif" font-size="14" lengthAdjust="spacing" textLength="80.8213" x="22" y="701.7686">sample.cpp</text><rect fill="#E2E2F0" height="30.2969" rx="2.5" ry="2.5" style="stroke:#181818;stroke-width:0.5;" width="159.8311" x="748.5308" y="681.7734"/><text fill="#000000" font-family="sans-serif" font-size="14" lengthAdjust="spacing" textLength="145.8311" x="755.5308" y="701.7686">vsomeip::application</text><rect fill="#E2E2F0" height="30.2969" rx="2.5" ry="2.5" style="stroke:#181818;stroke-width:0.5;" width="127.2578" x="1070.0703" y="681.7734"/><text fill="#000000" font-family="sans-serif" font-size="14" lengthAdjust="spacing" textLength="113.2578" x="1077.0703" y="701.7686">routingmanager</text><rect fill="#E2E2F0" height="30.2969" rx="2.5" ry="2.5" style="stroke:#181818;stroke-width:0.5;" width="159.8311" x="748.5308" y="84.5625"/><text fill="#000000" font-family="sans-serif" font-size="14" lengthAdjust="spacing" textLength="145.8311" x="755.5308" y="104.5576">vsomeip::application</text><polygon fill="#181818" points="736.5308,101.6953,746.5308,105.6953,736.5308,109.6953,740.5308,105.6953" style="stroke:#181818;stroke-width:1;"/><line style="stroke:#181818;stroke-width:1;" x1="62.4106" x2="742.5308" y1="105.6953" y2="105.6953"/><text fill="#000000" font-family="sans-serif" font-size="13" font-weight="bold" lengthAdjust="spacing" textLength="9.0454" x="69.4106" y="100.6294">1</text><text fill="#000000" font-family="sans-serif" font-size="13" lengthAdjust="spacing" textLength="488.7441" x="82.4561" y="100.6294">vomeip::runtime::get()-&gt;create_application(VSOMEIP_APPLICATION_NAME)</text><polygon fill="#181818" points="816.4463,132.9922,826.4463,136.9922,816.4463,140.9922,820.4463,136.9922" style="stroke:#181818;stroke-width:1;"/><line style="stroke:#181818;stroke-width:1;" x1="62.4106" x2="822.4463" y1="136.9922" y2="136.9922"/><text fill="#000000" font-family="sans-serif" font-size="13" font-weight="bold" lengthAdjust="spacing" textLength="9.0454" x="69.4106" y="131.9263">2</text><text fill="#000000" font-family="sans-serif" font-size="13" lengthAdjust="spacing" textLength="30.7036" x="82.4561" y="131.9263">init()</text><line style="stroke:#181818;stroke-width:1;" x1="828.4463" x2="870.4463" y1="166.125" y2="166.125"/><line style="stroke:#181818;stroke-width:1;" x1="870.4463" x2="870.4463" y1="166.125" y2="179.125"/><line style="stroke:#181818;stroke-width:1;" x1="829.4463" x2="870.4463" y1="179.125" y2="179.125"/><polygon fill="#181818" points="839.4463,175.125,829.4463,179.125,839.4463,183.125,835.4463,179.125" style="stroke:#181818;stroke-width:1;"/><text fill="#000000" font-family="sans-serif" font-size="13" font-weight="bold" lengthAdjust="spacing" textLength="9.0454" x="835.4463" y="161.0591">3</text><text fill="#000000" font-family="sans-serif" font-size="13" lengthAdjust="spacing" textLength="254.2109" x="848.4917" y="161.0591">loadConfig(VSOMEIP_CONFIGURATION)</text><polygon fill="#181818" points="816.4463,204.2578,826.4463,208.2578,816.4463,212.2578,820.4463,208.2578" style="stroke:#181818;stroke-width:1;"/><line style="stroke:#181818;stroke-width:1;" x1="62.4106" x2="822.4463" y1="208.2578" y2="208.2578"/><text fill="#000000" font-family="sans-serif" font-size="13" font-weight="bold" lengthAdjust="spacing" textLength="9.0454" x="69.4106" y="203.1919">4</text><text fill="#000000" font-family="sans-serif" font-size="13" lengthAdjust="spacing" textLength="211.7705" x="82.4561" y="203.1919">register_state_handler(on_state)</text><polygon fill="#181818" points="1121.6992,233.3906,1131.6992,237.3906,1121.6992,241.3906,1125.6992,237.3906" style="stroke:#181818;stroke-width:1;"/><line style="stroke:#181818;stroke-width:1;" x1="828.4463" x2="1127.6992" y1="237.3906" y2="237.3906"/><text fill="#000000" font-family="sans-serif" font-size="13" font-weight="bold" lengthAdjust="spacing" textLength="9.0454" x="835.4463" y="232.3247">5</text><text fill="#000000" font-family="sans-serif" font-size="13" lengthAdjust="spacing" textLength="268.2075" x="848.4917" y="232.3247">VSOMEIP_REGISTER_APPLICATION (0x02)</text><polygon fill="#181818" points="816.4463,262.5234,826.4463,266.5234,816.4463,270.5234,820.4463,266.5234" style="stroke:#181818;stroke-width:1;"/><line style="stroke:#181818;stroke-width:1;" x1="62.4106" x2="822.4463" y1="266.5234" y2="266.5234"/><text fill="#000000" font-family="sans-serif" font-size="13" font-weight="bold" lengthAdjust="spacing" textLength="9.0454" x="69.4106" y="261.4575">6</text><text fill="#000000" font-family="sans-serif" font-size="13" lengthAdjust="spacing" textLength="582.0039" x="82.4561" y="261.4575">register_availability_handler(SAMPLE_SERVICE_ID, SAMPLE_INSTANCE_ID, on_availability)</text><polygon fill="#181818" points="816.4463,291.6563,826.4463,295.6563,816.4463,299.6563,820.4463,295.6563" style="stroke:#181818;stroke-width:1;"/><line style="stroke:#181818;stroke-width:1;" x1="62.4106" x2="822.4463" y1="295.6563" y2="295.6563"/><text fill="#000000" font-family="sans-serif" font-size="13" font-weight="bold" lengthAdjust="spacing" textLength="9.0454" x="69.4106" y="290.5903">7</text><text fill="#000000" font-family="sans-serif" font-size="13" lengthAdjust="spacing" textLength="701.6191" x="82.4561" y="290.5903">register_message_handler(SAMPLE_SERVICE_ID, SAMPLE_INSTANCE_ID, SAMPLE_METHOD_ID, on_message)</text><polygon fill="#181818" points="816.4463,320.7891,826.4463,324.7891,816.4463,328.7891,820.4463,324.7891" style="stroke:#181818;stroke-width:1;"/><line style="stroke:#181818;stroke-width:1;" x1="62.4106" x2="822.4463" y1="324.7891" y2="324.7891"/><text fill="#000000" font-family="sans-serif" font-size="13" font-weight="bold" lengthAdjust="spacing" textLength="9.0454" x="69.4106" y="319.7231">8</text><text fill="#000000" font-family="sans-serif" font-size="13" lengthAdjust="spacing" textLength="40.4219" x="82.4561" y="319.7231">start()</text><polygon fill="#181818" points="73.4106,349.9219,63.4106,353.9219,73.4106,357.9219,69.4106,353.9219" style="stroke:#181818;stroke-width:1;"/><line style="stroke:#181818;stroke-width:1;stroke-dasharray:2,2;" x1="67.4106" x2="827.4463" y1="353.9219" y2="353.9219"/><text fill="#000000" font-family="sans-serif" font-size="13" font-weight="bold" lengthAdjust="spacing" textLength="9.0454" x="79.4106" y="348.856">9</text><text fill="#000000" font-family="sans-serif" font-size="13" lengthAdjust="spacing" textLength="26.6792" x="92.4561" y="348.856">true</text><polygon fill="#181818" points="839.4463,379.0547,829.4463,383.0547,839.4463,387.0547,835.4463,383.0547" style="stroke:#181818;stroke-width:1;"/><line style="stroke:#181818;stroke-width:1;" x1="833.4463" x2="1132.6992" y1="383.0547" y2="383.0547"/><text fill="#000000" font-family="sans-serif" font-size="13" font-weight="bold" lengthAdjust="spacing" textLength="18.0908" x="845.4463" y="377.9888">10</text><text fill="#000000" font-family="sans-serif" font-size="13" lengthAdjust="spacing" textLength="227.5762" x="867.5371" y="377.9888">VSOMEIP_REGISTERED_ACK (0x06)</text><polygon fill="#181818" points="73.4106,408.1875,63.4106,412.1875,73.4106,416.1875,69.4106,412.1875" style="stroke:#181818;stroke-width:1;"/><line style="stroke:#181818;stroke-width:1;" x1="67.4106" x2="827.4463" y1="412.1875" y2="412.1875"/><text fill="#000000" font-family="sans-serif" font-size="13" font-weight="bold" lengthAdjust="spacing" textLength="18.0908" x="79.4106" y="407.1216">11</text><text fill="#000000" font-family="sans-serif" font-size="13" lengthAdjust="spacing" textLength="256.0073" x="101.5015" y="407.1216">on_state(vsomeip::state_type_e _state)</text><path d="M46.4106,424.1875 L115.8618,424.1875 L115.8618,431.3203 L105.8618,441.3203 L46.4106,441.3203 L46.4106,424.1875" fill="#EEEEEE" style="stroke:#000000;stroke-width:1.5;"/><rect fill="none" height="85.3984" style="stroke:#000000;stroke-width:1.5;" width="1103.2886" x="46.4106" y="424.1875"/><text fill="#000000" font-family="sans-serif" font-size="13" font-weight="bold" lengthAdjust="spacing" textLength="24.4512" x="61.4106" y="437.2544">opt</text><text fill="#000000" font-family="sans-serif" font-size="11" font-weight="bold" lengthAdjust="spacing" textLength="310.0732" x="130.8618" y="436.3979">[_state = vsomeip::state_type_e::ST_REGISTERED]</text><polygon fill="#181818" points="816.4463,468.4531,826.4463,472.4531,816.4463,476.4531,820.4463,472.4531" style="stroke:#181818;stroke-width:1;"/><line style="stroke:#181818;stroke-width:1;" x1="62.4106" x2="822.4463" y1="472.4531" y2="472.4531"/><text fill="#000000" font-family="sans-serif" font-size="13" font-weight="bold" lengthAdjust="spacing" textLength="18.0908" x="69.4106" y="467.3872">12</text><text fill="#0000FF" font-family="sans-serif" font-size="13" font-weight="bold" lengthAdjust="spacing" textLength="94.3896" x="91.5015" y="467.3872">offer_service</text><text fill="#000000" font-family="sans-serif" font-size="13" lengthAdjust="spacing" textLength="296.5879" x="185.8911" y="467.3872">(SAMPLE_SERVICE_ID, SAMPLE_INSTANCE_ID)</text><polygon fill="#181818" points="1121.6992,497.5859,1131.6992,501.5859,1121.6992,505.5859,1125.6992,501.5859" style="stroke:#181818;stroke-width:1;"/><line style="stroke:#181818;stroke-width:1;" x1="828.4463" x2="1127.6992" y1="501.5859" y2="501.5859"/><text fill="#000000" font-family="sans-serif" font-size="13" font-weight="bold" lengthAdjust="spacing" textLength="18.0908" x="835.4463" y="496.52">13</text><text fill="#000000" font-family="sans-serif" font-size="13" lengthAdjust="spacing" textLength="126.9912" x="857.5371" y="496.52">OFFER_SERVICE(...)</text><rect fill="#EEEEEE" height="3" style="stroke:#EEEEEE;stroke-width:1;" width="1202.3281" x="5" y="546.4805"/><line style="stroke:#000000;stroke-width:1;" x1="5" x2="1207.3281" y1="546.4805" y2="546.4805"/><line style="stroke:#000000;stroke-width:1;" x1="5" x2="1207.3281" y1="549.4805" y2="549.4805"/><rect fill="#EEEEEE" height="27.7891" style="stroke:#000000;stroke-width:2;" width="350.8872" x="430.7205" y="533.5859"/><text fill="#000000" font-family="sans-serif" font-size="17" font-weight="bold" lengthAdjust="spacing" textLength="336.8872" x="436.7205" y="553.3657">receive request and send response</text><polygon fill="#181818" points="73.4106,588.5078,63.4106,592.5078,73.4106,596.5078,69.4106,592.5078" style="stroke:#181818;stroke-width:1;"/><line style="stroke:#181818;stroke-width:1;" x1="67.4106" x2="827.4463" y1="592.5078" y2="592.5078"/><text fill="#000000" font-family="sans-serif" font-size="13" font-weight="bold" lengthAdjust="spacing" textLength="18.0908" x="79.4106" y="587.4419">14</text><text fill="#000000" font-family="sans-serif" font-size="13" lengthAdjust="spacing" textLength="719.9448" x="101.5015" y="587.4419">on_message(_message{SAMPLE_SERVICE_ID, SAMPLE_INSTANCE_ID, SAMPLE_METHOD_ID, reliable, payload})</text><line style="stroke:#181818;stroke-width:1;" x1="62.4106" x2="104.4106" y1="621.6406" y2="621.6406"/><line style="stroke:#181818;stroke-width:1;" x1="104.4106" x2="104.4106" y1="621.6406" y2="634.6406"/><line style="stroke:#181818;stroke-width:1;" x1="63.4106" x2="104.4106" y1="634.6406" y2="634.6406"/><polygon fill="#181818" points="73.4106,630.6406,63.4106,634.6406,73.4106,638.6406,69.4106,634.6406" style="stroke:#181818;stroke-width:1;"/><text fill="#000000" font-family="sans-serif" font-size="13" font-weight="bold" lengthAdjust="spacing" textLength="18.0908" x="69.4106" y="616.5747">15</text><text fill="#000000" font-family="sans-serif" font-size="13" lengthAdjust="spacing" textLength="389.981" x="91.5015" y="616.5747">create_response(_message).setpayload(...)  -&gt; its_response</text><polygon fill="#181818" points="816.4463,659.7734,826.4463,663.7734,816.4463,667.7734,820.4463,663.7734" style="stroke:#181818;stroke-width:1;"/><line style="stroke:#181818;stroke-width:1;" x1="62.4106" x2="822.4463" y1="663.7734" y2="663.7734"/><text fill="#000000" font-family="sans-serif" font-size="13" font-weight="bold" lengthAdjust="spacing" textLength="18.0908" x="69.4106" y="658.7075">16</text><text fill="#0000FF" font-family="sans-serif" font-size="13" font-weight="bold" lengthAdjust="spacing" textLength="35.1152" x="91.5015" y="658.7075">send</text><text fill="#000000" font-family="sans-serif" font-size="13" lengthAdjust="spacing" textLength="91.457" x="126.6167" y="658.7075">(its_response)</text><!--SRC=[dLHTRzem57tthxXZBm6L3DXWB2fe5497Im01vJKouK8j9NRcEAXisd-V4npAw3fjUtFknpatvtxGL0cUHckKv4qiwIwYe51y0oLJ96Gjdg0qwzV1gdzgsFLMswxRpO_b4hmTizsZkWbr440U9J691K-mcj0e3h6axG0nbOe5BAPSGUdei8CuBW5D846-qQmlmlQ9Y935ZaFZE6G1LKpmF45_wsYTbH6IYomfKiMuBf_J7SeyFZD5EqcA379ah7Or45Gg3i3UCCcKAnQXu-nGMULgDv185Vfd1LYhnTHpHpE_DvkDH_tUSZIT-9EUvvRFKHrWd6a4ej_640gwwGk-PRiJH7yw6Ovk7-Ovo4M-n1rB54e_KLa5ZvHlGfIMu4U3GJP_va01ENTlHukbEpyl3wpQKwtn6ZxTKnRIDGkPEfne5ZrlDdRzXJjVZVgkFnfSWJ6D9ejbRs9ikfhpzDSe8amItOn_HJSsprr-cGuAFeDrGQKraPdS4bKgkPbP8uu9kLJ87VYz_dskJSkeUOHqe13PEatWiGdg4AEFK7H0nCgyeGE_3NMSnVACyDUQAvNhG8H2mbelJrTijrcpKUvPWDVlSa-tKlaxhIwdOJeSwX4mEPPjs-LizWdfT3eI0sHxrCtvccAYGBSaNq0erhRJUI66qTmg7j__ku4IGqRN8LxfdJra6_7ZkP45eTcvefuJQzbEK9cq_9y0gbrWAZc5_adVp7KcwtbQcNpMJfL68I6pK1-H1syCUvI9NdUesurQesctBKz_B326MXlgJQVPSjwtuM7PXynT9jRjR0o9I6M0iD5JBzawpSv5cTpf3O6vkIimZP7V3UuB0xXypwJW4N95xbRUSq3hG_M6ASqeTIMmyiW0jpGDbSu8n4OVE4Up3wjjCgPybsfv77qGILzeN7bmWATX-1C0]--></g></svg>